<svg width="500" height="500" viewBox="0 0 500 500" fill="none" xmlns="http://www.w3.org/2000/svg">
<path d="M449.14 250.002C581.896 433.299 433.299 581.895 250 449.14C66.7015 581.895 -81.8959 433.299 50.8603 250.002C-81.8959 66.7055 66.7015 -81.9013 250 50.8645C433.299 -81.8904 581.896 66.7055 449.14 250.002Z" fill="#F1A6B1"/>
<path d="M172.962 212.724C172.962 208.881 176.078 205.765 179.921 205.765C183.764 205.765 186.879 208.881 186.879 212.724C186.879 224.252 196.225 233.598 207.754 233.598C219.282 233.598 228.628 224.252 228.628 212.724C228.628 208.881 231.744 205.765 235.587 205.765C239.43 205.765 242.545 208.881 242.545 212.724C242.545 231.938 226.968 247.515 207.754 247.515C188.539 247.515 172.962 231.938 172.962 212.724Z" fill="black"/>
<path d="M258.449 212.724C258.449 208.881 261.565 205.765 265.407 205.765C269.25 205.765 272.366 208.881 272.366 212.724C272.366 224.252 281.712 233.598 293.24 233.598C304.769 233.598 314.115 224.252 314.115 212.724C314.115 208.881 317.231 205.765 321.073 205.765C324.916 205.765 328.032 208.881 328.032 212.724C328.032 231.938 312.455 247.515 293.24 247.515C274.026 247.515 258.449 231.938 258.449 212.724Z" fill="black"/>
<path d="M126.577 244.419C128.836 241.31 133.187 240.621 136.296 242.88C166.705 264.974 207.952 276.596 249.161 276.777C290.387 276.958 330.728 265.691 359.514 243.041C362.534 240.665 366.909 241.186 369.285 244.206C371.661 247.226 371.14 251.601 368.12 253.977C336.269 279.04 292.615 290.885 249.099 290.693C205.567 290.502 161.326 278.267 128.117 254.138C125.008 251.88 124.319 247.528 126.577 244.419Z" fill="black"/>
</svg>
