<svg width="462" height="500" viewBox="0 0 462 500" fill="none" xmlns="http://www.w3.org/2000/svg">
<path d="M22.849 250C-36.7525 330.074 28.0913 442.898 126.925 431.082C166.156 522.973 295.844 522.973 335.075 431.082C433.909 442.888 498.752 330.074 439.151 250C498.752 169.926 433.909 57.1017 335.075 68.9177C295.844 -22.9726 166.156 -22.9726 126.925 68.9177C28.0913 57.1017 -36.7525 169.916 22.849 250Z" fill="#F4C1D8"/>
<path d="M155 158C155 154.134 158.134 151 162 151C165.866 151 169 154.134 169 158C169 169.598 178.402 179 190 179C201.598 179 211 169.598 211 158C211 154.134 214.134 151 218 151C221.866 151 225 154.134 225 158C225 177.33 209.33 193 190 193C170.67 193 155 177.33 155 158Z" fill="black"/>
<path d="M241 158C241 154.134 244.134 151 248 151C251.866 151 255 154.134 255 158C255 169.598 264.402 179 276 179C287.598 179 297 169.598 297 158C297 154.134 300.134 151 304 151C307.866 151 311 154.134 311 158C311 177.33 295.33 193 276 193C256.67 193 241 177.33 241 158Z" fill="black"/>
<path d="M108.337 189.886C110.609 186.758 114.986 186.065 118.114 188.337C148.706 210.564 190.2 222.255 231.656 222.438C273.129 222.62 313.713 211.286 342.671 188.499C345.709 186.108 350.11 186.633 352.501 189.671C354.891 192.709 354.367 197.11 351.329 199.501C319.287 224.714 275.37 236.63 231.594 236.438C187.8 236.245 143.294 223.936 109.886 199.663C106.758 197.391 106.064 193.013 108.337 189.886Z" fill="black"/>
</svg>
