<svg width="500" height="500" viewBox="0 0 500 500" fill="none" xmlns="http://www.w3.org/2000/svg">
<path d="M109.037 96.8455C9.75693 107.219 -29.3444 231.336 46.281 296.054C5.23765 387.15 93.0638 482.572 187.244 449.209C245.488 529.924 372.408 501.236 390.963 403.155C490.243 392.781 529.345 268.664 453.719 203.946C494.763 112.85 406.937 17.4281 312.757 50.7913C254.519 -29.9308 127.599 -1.24266 109.037 96.8455Z" fill="#F4C1D8"/>
<path d="M267.047 236.47C268.444 232.866 272.499 231.076 276.104 232.473C279.708 233.87 281.498 237.925 280.101 241.53C275.909 252.344 281.278 264.508 292.092 268.7C302.906 272.891 315.071 267.522 319.262 256.708C320.659 253.104 324.714 251.314 328.319 252.711C331.923 254.108 333.713 258.163 332.316 261.768C325.33 279.791 305.056 288.739 287.033 281.754C269.009 274.768 260.061 254.494 267.047 236.47Z" fill="black"/>
<path d="M347.234 267.55C348.632 263.946 352.686 262.156 356.291 263.553C359.896 264.95 361.685 269.005 360.288 272.61C356.097 283.424 361.465 295.588 372.28 299.78C383.094 303.971 395.258 298.602 399.45 287.788C400.847 284.184 404.901 282.394 408.506 283.791C412.111 285.188 413.9 289.243 412.503 292.848C405.518 310.871 385.244 319.819 367.22 312.833C349.197 305.848 340.249 285.574 347.234 267.55Z" fill="black"/>
<path d="M212.014 249.337C215.263 247.242 219.596 248.177 221.691 251.426C242.182 283.206 276.646 309.104 315.235 324.256C353.839 339.414 395.776 343.512 431.012 332.731C434.708 331.6 438.622 333.68 439.754 337.376C440.885 341.073 438.805 344.987 435.109 346.119C396.12 358.048 350.865 353.287 310.117 337.287C269.353 321.281 232.303 293.72 209.925 259.013C207.83 255.764 208.765 251.432 212.014 249.337Z" fill="black"/>
</svg>
