<svg width="500" height="442" viewBox="0 0 500 442" fill="none" xmlns="http://www.w3.org/2000/svg">
<path d="M499.43 323.11C482.03 135.9 377.12 0 250.01 0C122.9 0 17.9599 135.89 0.569897 323.11C-2.4101 355.13 6.4199 387.71 24.1699 410.28C39.9699 430.36 61.2199 441.43 84.0199 441.43H416C438.8 441.43 460.09 430.36 475.85 410.28C493.62 387.71 502.41 355.13 499.44 323.11H499.43Z" fill="#BFD4EE"/>
<path d="M174 116C174 112.134 177.134 109 181 109C184.866 109 188 112.134 188 116C188 127.598 197.402 137 209 137C220.598 137 230 127.598 230 116C230 112.134 233.134 109 237 109C240.866 109 244 112.134 244 116C244 135.33 228.33 151 209 151C189.67 151 174 135.33 174 116Z" fill="black"/>
<path d="M132.998 168.007C195.824 167.99 300.002 168.007 366 168.007C369.866 168.007 373 171.141 373 175.007C373 178.873 369.866 182.007 366 182.007C299.998 182.007 195.826 181.99 133.002 182.007C129.136 182.008 126.001 178.875 126 175.009C125.999 171.143 129.132 168.008 132.998 168.007Z" fill="black"/>
<path d="M260 116C260 112.134 263.134 109 267 109C270.866 109 274 112.134 274 116C274 127.598 283.402 137 295 137C306.598 137 316 127.598 316 116C316 112.134 319.134 109 323 109C326.866 109 330 112.134 330 116C330 135.33 314.33 151 295 151C275.67 151 260 135.33 260 116Z" fill="black"/>
</svg>
