<svg width="500" height="442" viewBox="0 0 500 442" fill="none" xmlns="http://www.w3.org/2000/svg">
<path d="M499.43 323.11C482.03 135.9 377.12 0 250.01 0C122.9 0 17.9599 135.89 0.569897 323.11C-2.4101 355.13 6.4199 387.71 24.1699 410.28C39.9699 430.36 61.2199 441.43 84.0199 441.43H416C438.8 441.43 460.09 430.36 475.85 410.28C493.62 387.71 502.41 355.13 499.44 323.11H499.43Z" fill="#BFD4EE"/>
<path d="M174 116C174 112.134 177.134 109 181 109C184.866 109 188 112.134 188 116C188 127.598 197.402 137 209 137C220.598 137 230 127.598 230 116C230 112.134 233.134 109 237 109C240.866 109 244 112.134 244 116C244 135.33 228.33 151 209 151C189.67 151 174 135.33 174 116Z" fill="black"/>
<path d="M260 116C260 112.134 263.134 109 267 109C270.866 109 274 112.134 274 116C274 127.598 283.402 137 295 137C306.598 137 316 127.598 316 116C316 112.134 319.134 109 323 109C326.866 109 330 112.134 330 116C330 135.33 314.33 151 295 151C275.67 151 260 135.33 260 116Z" fill="black"/>
<path d="M127.337 147.886C129.609 144.758 133.986 144.065 137.114 146.337C167.706 168.564 209.2 180.255 250.656 180.438C292.129 180.62 332.713 169.286 361.671 146.499C364.709 144.108 369.11 144.633 371.501 147.671C373.891 150.709 373.367 155.11 370.329 157.501C338.287 182.714 294.37 194.63 250.594 194.438C206.8 194.245 162.294 181.936 128.886 157.663C125.758 155.391 125.064 151.013 127.337 147.886Z" fill="black"/>
</svg>
