<svg width="500" height="370" viewBox="0 0 500 370" fill="none" xmlns="http://www.w3.org/2000/svg">
<path d="M333.733 137.065C324.858 57.7908 279.272 0.980467 225.353 1.99476C171.434 3.00905 128.004 61.4897 122.121 141.045C121.112 154.652 125.118 168.401 132.828 177.834C139.69 186.225 148.792 190.752 158.464 190.57L299.287 187.921C308.958 187.739 317.901 182.873 324.426 174.23C331.784 164.514 335.252 150.623 333.737 137.065L333.733 137.065Z" fill="#BFD4EE"/>
<path d="M194.036 51.8067C194.005 50.1668 195.309 48.8124 196.949 48.7815C198.589 48.7507 199.943 50.0551 199.974 51.695C200.067 56.6148 204.13 60.528 209.05 60.4354C213.97 60.3429 217.883 56.2796 217.79 51.3599C217.759 49.72 219.064 48.3655 220.704 48.3347C222.344 48.3038 223.698 49.6082 223.729 51.2482C223.883 59.4477 217.361 66.2199 209.162 66.3741C200.962 66.5284 194.19 60.0063 194.036 51.8067Z" fill="black"/>
<path d="M230.516 51.1207C230.485 49.4808 231.789 48.1264 233.429 48.0955C235.069 48.0647 236.423 49.3691 236.454 51.009C236.547 55.9287 240.61 59.842 245.53 59.7494C250.45 59.6569 254.363 55.5936 254.27 50.6738C254.239 49.0339 255.544 47.6795 257.184 47.6487C258.824 47.6178 260.178 48.9222 260.209 50.5621C260.363 58.7617 253.841 65.5338 245.642 65.6881C237.442 65.8423 230.67 59.3203 230.516 51.1207Z" fill="black"/>
<path d="M174.496 65.7048C175.435 64.36 177.286 64.0309 178.631 64.9698C191.785 74.154 209.48 78.7823 227.066 78.5289C244.66 78.2753 261.785 73.1435 273.887 63.2466C275.157 62.2083 277.028 62.3957 278.066 63.6653C279.104 64.9349 278.917 66.8061 277.648 67.8445C264.257 78.7954 245.723 84.2004 227.152 84.468C208.573 84.7357 189.596 79.8698 175.231 69.8399C173.886 68.9009 173.557 67.0496 174.496 65.7048Z" fill="black"/>
<path d="M419.049 270.825C404.222 372.309 309 373.593 291.439 272.547C189.955 257.719 188.67 162.497 289.716 144.937C304.543 43.4532 399.768 42.1651 417.326 143.215C518.81 158.043 520.095 253.265 419.049 270.825Z" fill="#F1A6B1"/>
<path d="M341.149 171.426C342.363 170.178 344.36 170.151 345.608 171.366C346.856 172.581 346.883 174.577 345.668 175.825C342.024 179.569 342.105 185.557 345.848 189.202C349.592 192.846 355.581 192.765 359.225 189.021C360.44 187.773 362.436 187.746 363.684 188.961C364.932 190.176 364.959 192.172 363.744 193.42C357.671 199.659 347.689 199.794 341.45 193.721C335.21 187.647 335.075 177.666 341.149 171.426Z" fill="black"/>
<path d="M368.909 198.447C370.124 197.199 372.12 197.172 373.368 198.386C374.616 199.601 374.643 201.597 373.428 202.845C369.784 206.589 369.865 212.578 373.609 216.222C377.352 219.866 383.341 219.785 386.985 216.042C388.2 214.794 390.196 214.767 391.444 215.981C392.692 217.196 392.719 219.192 391.504 220.44C385.431 226.68 375.449 226.815 369.21 220.741C362.97 214.668 362.836 204.686 368.909 198.447Z" fill="black"/>
<path d="M316.068 167.057C317.784 166.761 319.415 167.913 319.711 169.629C322.602 186.415 332.322 203.226 345.647 216.311C358.977 229.4 375.638 238.493 392.145 240.236C393.877 240.419 395.133 241.971 394.95 243.703C394.767 245.435 393.215 246.69 391.483 246.508C373.218 244.579 355.298 234.627 341.228 220.81C327.152 206.988 316.653 189.031 313.496 170.699C313.2 168.983 314.352 167.352 316.068 167.057Z" fill="black"/>
<path d="M39.9032 260.226C32.6738 306.944 84.7956 339.828 123.559 313.004C160.324 342.792 214.621 314.086 210.707 266.93C254.699 249.997 256.877 188.411 214.199 168.079C221.428 121.361 169.306 88.4772 130.543 115.301C93.7776 85.5124 39.4806 114.218 43.3949 161.374C-0.599569 178.304 -2.77692 239.889 39.9032 260.226Z" fill="#F4C1D8"/>
<path d="M74.8678 192.457C74.0121 190.838 74.6305 188.833 76.2491 187.977C77.8677 187.121 79.8735 187.74 80.7292 189.358C83.2964 194.214 89.3139 196.069 94.1697 193.502C99.0255 190.935 100.881 184.917 98.3136 180.062C97.4579 178.443 98.0763 176.437 99.6949 175.581C101.314 174.726 103.319 175.344 104.175 176.963C108.454 185.056 105.362 195.085 97.2686 199.364C89.1756 203.642 79.1464 200.55 74.8678 192.457Z" fill="black"/>
<path d="M110.874 173.421C110.018 171.802 110.636 169.797 112.255 168.941C113.874 168.085 115.879 168.704 116.735 170.322C119.302 175.178 125.32 177.033 130.176 174.466C135.031 171.899 136.887 165.881 134.319 161.026C133.464 159.407 134.082 157.401 135.701 156.545C137.319 155.69 139.325 156.308 140.181 157.927C144.46 166.02 141.367 176.049 133.274 180.327C125.181 184.606 115.152 181.514 110.874 173.421Z" fill="black"/>
<path d="M62.3886 216.135C62.6477 214.323 64.3269 213.064 66.1393 213.323C83.867 215.857 103.827 211.568 121.225 202.468C138.629 193.364 153.111 179.636 160.192 163.686C160.934 162.012 162.893 161.258 164.567 162C166.24 162.743 166.995 164.702 166.252 166.375C158.418 184.024 142.668 198.734 124.297 208.343C105.92 217.956 84.5614 222.654 65.2013 219.886C63.3889 219.627 62.1296 217.948 62.3886 216.135Z" fill="black"/>
</svg>
