<svg width="174" height="174" viewBox="0 0 174 174" fill="none" xmlns="http://www.w3.org/2000/svg">
<rect width="174" height="174" fill="#F4C1D8"/>
<path d="M143 80.003C143 65.6456 131.362 54.0038 117.01 54.0038C115.373 54.0038 113.776 54.1727 112.217 54.4651C110.49 41.7838 99.6509 32 86.5 32C73.3491 32 62.5102 41.7773 60.7763 54.4586C59.2241 54.1662 57.6265 53.9973 55.9835 53.9973C41.6377 54.0038 30 65.6391 30 80.003C30 90.5599 36.2994 99.6226 45.3329 103.696C43.008 107.594 41.6442 112.128 41.6442 117.001C41.6442 131.358 53.2819 143 67.6342 143C75.0701 143 81.7657 139.856 86.5 134.847C91.2343 139.856 97.9299 143 105.366 143C119.718 143 131.356 131.358 131.356 117.001C131.356 112.135 129.992 107.594 127.667 103.696C136.701 99.6226 143 90.5534 143 80.003Z" fill="#ED3030"/>
<path d="M113 84.0521C113 77.4577 107.642 72.1064 101.039 72.1064C100.282 72.1064 99.5508 72.1833 98.8386 72.3179C98.0429 66.4925 93.0508 62 87 62C80.9492 62 75.9571 66.4925 75.1614 72.3179C74.4492 72.1833 73.7113 72.1064 72.9605 72.1064C66.3579 72.1064 61 77.4577 61 84.0521C61 88.9035 63.9003 93.0691 68.0582 94.9404C66.9867 96.7284 66.3578 98.8177 66.3578 101.054C66.3578 107.649 71.7093 113 78.3184 113C81.7448 113 84.8184 111.558 87 109.251C89.1816 111.552 92.2616 113 95.6816 113C102.284 113 107.642 107.649 107.642 101.054C107.642 98.8177 107.013 96.7349 105.942 94.9404C110.1 93.0691 113 88.9035 113 84.0521Z" fill="#FF669C"/>
</svg>
