<svg width="480" height="480" viewBox="0 0 480 480" fill="none" xmlns="http://www.w3.org/2000/svg">
<rect width="480" height="480" fill="#F4C1D8"/>
<path d="M164.086 250.898C156.556 247.904 144.778 239.405 139.28 233.442C121.164 213.795 130.549 197.124 156.959 201.08C172.647 203.43 186.019 213.377 197.014 224.117C184.835 206.566 170.462 182.28 176.188 160.022C181.541 139.211 201.741 147.198 213.297 157.441C231.412 173.496 238.543 198.877 241.048 222.151C241.121 222.82 240.999 223.464 241.669 223.912C243.333 207.396 252.176 183.827 267.792 175.832C275.235 172.022 285.809 171.361 286.725 182.031C287.884 195.536 278.06 210.714 273.012 222.714C285.955 204.193 314.697 177.948 339.262 185.447C360.379 191.893 345.587 216.485 336.695 227.274C330.175 235.183 315.695 248.049 306.549 252.486C302.247 254.572 296.692 255.552 292.058 257.241C280.227 261.553 268.483 268.201 258.532 275.899C271.574 250.254 292.037 229.055 315.89 213.184L316.016 212.305C315.578 210.782 314.805 210.516 313.314 211.033C310.499 212.01 300.467 220.011 297.632 222.339C283.233 234.166 271.097 248.281 261.146 264.029L251.786 281.454C247.752 285.013 243.996 289.073 240.278 292.963C240.014 292.958 239.748 292.956 239.484 292.963C234.153 287.354 228.475 281.518 222.42 276.692L215.432 266.418C200.478 246.804 178.941 226.367 155.453 217.666C153.813 217.058 148.565 214.433 147.885 216.663C147.009 219.54 154.461 220.823 156.812 221.863C179.629 231.95 199.552 250.014 213.69 270.343C204.194 264.005 192.907 258.704 181.941 255.465C176.124 253.747 169.509 253.055 164.086 250.898H164.086ZM253.67 238.888C255.856 225.858 259.916 212.576 266.402 201.03C267.573 198.947 274.066 190.454 274.251 189.794C274.659 188.344 273.291 186.998 271.809 187.777C268.48 189.529 260.595 204.599 258.862 208.569C256.046 215.016 250.636 230.143 250.588 236.837C250.582 237.785 250.473 238.637 251.392 239.208L253.67 238.888Z" fill="#82C577"/>
<path d="M164.086 250.899C169.509 253.056 176.124 253.748 181.941 255.466C192.907 258.705 204.193 264.006 213.69 270.344C216.564 272.263 219.721 274.542 222.42 276.693C228.475 281.519 234.153 287.355 239.484 292.964C229.915 293.211 220.535 299.046 217.788 308.457C212.35 307.713 206.995 308.419 201.571 308.454C169.681 308.656 137.515 308.374 105.569 308.455C99.7985 308.469 92.2895 307.554 86.7041 308.44L93.847 308.043V284.829C93.847 283.604 97.5409 279.985 99.1968 280.258C122.694 280.352 146.21 279.784 169.639 281.451L140.813 275.561C132.53 274.727 124.202 273.741 115.871 273.481C114.333 273.433 111.988 274.568 110.675 273.557L110.118 272.514C111.22 269.871 117.415 250.587 118.726 250.183C119.35 249.99 122.79 249.756 123.793 249.694C136.503 248.905 149.316 250.147 161.918 251.295C162.574 251.355 163.667 251.535 164.086 250.899Z" fill="#FEEFCB"/>
<path d="M306.549 252.487L332.527 249.694C340.335 250.115 348.62 249.185 356.366 249.694C357.345 249.758 360.36 249.982 361.035 250.184C362.854 250.726 368.033 269.505 369.646 272.168C369.776 275.134 365.278 273.437 363.493 273.49C350.362 273.886 337.301 275.84 324.398 278.074L310.123 281.451C333.687 279.817 357.332 280.334 380.963 280.257C382.45 279.92 385.915 283.897 385.915 284.829V308.043L393.455 308.44L261.971 308.062C258.85 298.801 249.973 293.129 240.278 292.964C243.997 289.075 247.752 285.014 251.786 281.456C253.87 279.618 256.333 277.602 258.532 275.9C268.484 268.202 280.227 261.554 292.058 257.242C296.693 255.553 302.248 254.573 306.549 252.487L306.549 252.487Z" fill="#FEEFCB"/>
<path d="M239.484 292.962C239.748 292.955 240.014 292.958 240.278 292.962C249.972 293.128 258.849 298.8 261.97 308.061L393.454 308.439C398.66 310.102 397.967 317.631 392.47 318.367L261.504 318.752C253.491 336.962 225.81 336.85 218.18 318.345L87.3015 318.357C81.7512 318.158 81.5936 309.249 86.704 308.439C92.2893 307.553 99.7984 308.468 105.568 308.453C137.515 308.373 169.681 308.654 201.57 308.452C206.994 308.418 212.35 307.712 217.788 308.455C220.535 299.044 229.914 293.21 239.484 292.962Z" fill="#EDBC6D"/>
<path d="M258.532 275.899C256.332 277.6 253.869 279.617 251.786 281.454L261.146 264.029C271.097 248.281 283.233 234.166 297.632 222.339C300.466 220.011 310.498 212.009 313.314 211.033C314.805 210.516 315.577 210.782 316.015 212.305L315.889 213.184C292.037 229.055 271.574 250.254 258.532 275.899H258.532Z" fill="#6CA663"/>
<path d="M222.421 276.692C219.721 274.54 216.565 272.261 213.69 270.342C199.552 250.013 179.629 231.949 156.812 221.862C154.461 220.822 147.01 219.539 147.886 216.662C148.565 214.432 153.813 217.057 155.454 217.665C178.941 226.367 200.479 246.803 215.433 266.418L222.421 276.692Z" fill="#6CA763"/>
<path d="M253.67 238.888L251.392 239.208C250.473 238.636 250.582 237.784 250.588 236.836C250.636 230.142 256.046 215.016 258.861 208.568C260.595 204.599 268.48 189.528 271.809 187.777C273.291 186.997 274.659 188.344 274.251 189.794C274.066 190.454 267.573 198.946 266.402 201.029C259.916 212.576 255.856 225.858 253.67 238.888Z" fill="#6CA563"/>
</svg>
