<svg width="1125" height="562" viewBox="0 0 1125 562" fill="none" xmlns="http://www.w3.org/2000/svg">
<rect width="1125" height="562" fill="#F4C1D8"/>
<path d="M443.31 299.127C431.487 294.425 412.996 281.082 404.363 271.72C375.92 240.872 390.655 214.698 432.12 220.909C456.752 224.599 477.747 240.217 495.009 257.079C475.887 229.522 453.321 191.392 462.31 156.446C470.715 123.771 502.431 136.31 520.575 152.392C549.017 177.601 560.211 217.451 564.146 253.992C564.259 255.043 564.069 256.053 565.12 256.756C567.734 230.825 581.616 193.82 606.135 181.268C617.82 175.286 634.423 174.249 635.861 191C637.68 212.205 622.256 236.035 614.331 254.876C634.651 225.797 679.778 184.591 718.347 196.364C751.502 206.485 728.279 245.096 714.317 262.035C704.081 274.454 681.345 294.654 666.985 301.619C660.232 304.895 651.51 306.434 644.234 309.086C625.659 315.855 607.22 326.293 591.596 338.379C612.073 298.116 644.201 264.832 681.651 239.914L681.849 238.533C681.161 236.142 679.948 235.724 677.607 236.536C673.187 238.069 657.436 250.632 652.986 254.287C630.378 272.856 611.324 295.018 595.701 319.743L581.004 347.102C574.671 352.689 568.774 359.064 562.936 365.17C562.522 365.163 562.104 365.16 561.69 365.17C553.32 356.364 544.405 347.202 534.899 339.625L523.927 323.495C500.448 292.699 466.633 260.612 429.756 246.949C427.18 245.995 418.94 241.874 417.874 245.375C416.499 249.892 428.198 251.907 431.89 253.539C467.714 269.376 498.993 297.738 521.192 329.657C506.281 319.706 488.561 311.382 471.343 306.297C462.21 303.599 451.824 302.513 443.31 299.127H443.31ZM583.963 280.27C587.395 259.812 593.769 238.959 603.953 220.83C605.791 217.559 615.986 204.226 616.277 203.19C616.917 200.913 614.769 198.799 612.442 200.023C607.215 202.773 594.835 226.434 592.114 232.667C587.693 242.79 579.2 266.539 579.124 277.05C579.114 278.538 578.943 279.875 580.386 280.773L583.963 280.27Z" fill="#82C577"/>
<path d="M443.31 299.127C451.824 302.513 462.21 303.599 471.343 306.297C488.56 311.382 506.281 319.705 521.192 329.656C525.704 332.668 530.66 336.247 534.899 339.625C544.405 347.202 553.32 356.364 561.69 365.17C546.665 365.559 531.938 374.719 527.626 389.495C519.088 388.328 510.679 389.436 502.163 389.49C452.094 389.808 401.592 389.366 351.434 389.492C342.374 389.515 330.585 388.078 321.815 389.469L333.03 388.846V352.398C333.03 350.475 338.83 344.794 341.43 345.221C378.321 345.37 415.243 344.477 452.029 347.095L406.77 337.848C393.765 336.538 380.69 334.99 367.609 334.581C365.195 334.506 361.513 336.287 359.451 334.7L358.577 333.064C360.306 328.913 370.034 298.637 372.091 298.001C373.071 297.698 378.472 297.332 380.047 297.234C400.004 295.995 420.12 297.945 439.905 299.749C440.935 299.843 442.652 300.125 443.31 299.127Z" fill="#FEEFCB"/>
<path d="M666.986 301.619L707.772 297.235C720.031 297.896 733.039 296.435 745.202 297.234C746.739 297.335 751.472 297.687 752.533 298.003C755.387 298.855 763.519 328.339 766.051 332.521C766.256 337.177 759.194 334.512 756.391 334.597C735.775 335.218 715.268 338.285 695.009 341.793L672.596 347.095C709.595 344.53 746.719 345.341 783.819 345.221C786.154 344.691 791.595 350.936 791.595 352.398V388.847L803.434 389.47L596.995 388.876C592.094 374.336 578.158 365.43 562.936 365.171C568.775 359.065 574.671 352.689 581.005 347.102C584.276 344.217 588.143 341.051 591.596 338.38C607.22 326.294 625.659 315.855 644.234 309.086C651.51 306.434 660.232 304.895 666.985 301.62L666.986 301.619Z" fill="#FEEFCB"/>
<path d="M561.69 365.17C562.104 365.159 562.522 365.163 562.936 365.17C578.157 365.429 592.094 374.335 596.994 388.875L803.433 389.469C811.606 392.081 810.518 403.901 801.887 405.057L596.262 405.661C583.682 434.252 540.221 434.077 528.242 405.023L322.754 405.041C314.039 404.729 313.792 390.742 321.815 389.469C330.585 388.077 342.374 389.515 351.434 389.492C401.592 389.365 452.094 389.807 502.163 389.49C510.679 389.436 519.088 388.327 527.626 389.495C531.938 374.719 546.665 365.558 561.69 365.17Z" fill="#EDBC6D"/>
<path d="M591.596 338.379C588.142 341.051 584.275 344.216 581.004 347.102L595.701 319.742C611.324 295.017 630.378 272.856 652.986 254.287C657.436 250.632 673.187 238.069 677.607 236.536C679.948 235.724 681.161 236.141 681.849 238.533L681.651 239.913C644.201 264.832 612.073 298.115 591.596 338.379H591.596Z" fill="#6CA663"/>
<path d="M534.899 339.625C530.66 336.246 525.705 332.668 521.192 329.656C498.993 297.737 467.714 269.376 431.89 253.538C428.198 251.906 416.499 249.891 417.874 245.375C418.94 241.873 427.18 245.995 429.756 246.949C466.633 260.611 500.448 292.698 523.927 323.494L534.899 339.625Z" fill="#6CA763"/>
<path d="M583.963 280.27L580.386 280.773C578.943 279.875 579.114 278.537 579.124 277.049C579.199 266.539 587.693 242.79 592.114 232.666C594.835 226.434 607.215 202.772 612.442 200.022C614.769 198.798 616.917 200.912 616.277 203.19C615.986 204.225 605.791 217.559 603.953 220.83C593.769 238.958 587.394 259.812 583.963 280.27Z" fill="#6CA563"/>
</svg>
