<svg width="480" height="480" viewBox="0 0 480 480" fill="none" xmlns="http://www.w3.org/2000/svg">
<rect width="480" height="480" fill="#F1C1A6"/>
<path d="M346.468 264.032L346.797 234.525C346.896 225.699 340.253 218.246 331.472 217.347C315.315 215.691 298.554 215.435 282.002 216.581C288.785 200.981 295.035 184.799 300.501 168.679C303.534 159.736 298.735 150.029 289.787 147.011L261.826 137.579C253.462 134.758 244.322 138.773 240.753 146.846C234.186 161.701 228.763 177.563 224.737 193.659C211.997 182.387 198.538 171.442 184.896 161.262C177.328 155.614 166.613 157.178 160.978 164.756L143.367 188.434C138.1 195.517 139.094 205.451 145.669 211.339C157.767 222.176 171.177 232.235 185.241 241.038C170.584 249.671 156.016 259.089 142.118 268.917C134.408 274.37 132.585 285.043 138.05 292.745L155.128 316.81C160.236 324.008 169.99 326.133 177.623 321.7C191.667 313.542 205.378 303.897 218.096 293.241C221.777 309.848 226.233 326.614 231.285 342.869C234.088 351.886 243.676 356.919 252.689 354.101L280.854 345.296C289.279 342.662 294.313 334.041 292.456 325.412C289.037 309.534 284.101 293.514 277.897 278.126C294.829 279.756 312.151 280.7 329.171 280.918C338.614 281.038 346.363 273.475 346.468 264.032Z" fill="#FF662B"/>
<path d="M198.161 227.065C203.832 232.067 209.818 236.919 215.88 241.428C209.251 244.647 202.85 248.452 196.992 252.662C193.808 254.95 192.897 259.29 194.886 262.668L201.538 273.963C203.666 277.577 208.324 278.777 211.935 276.643C218.443 272.796 224.908 268.602 231.07 264.23C232.083 271.53 233.723 278.793 235.917 285.665C237.109 289.4 240.955 291.608 244.783 290.76L257.58 287.924C261.675 287.017 264.256 282.958 263.342 278.864C261.694 271.485 259.703 264.041 257.449 256.83C264.705 258.122 272.12 258.806 279.334 258.843C283.254 258.864 286.542 255.888 286.918 251.986L288.176 238.939C288.578 234.763 285.516 231.055 281.34 230.659C273.813 229.946 266.118 229.539 258.563 229.454C262.035 222.953 264.976 216.113 267.241 209.263C268.472 205.541 266.658 201.494 263.063 199.93L251.043 194.703C247.196 193.03 242.723 194.796 241.056 198.645C238.052 205.584 235.287 212.776 232.872 219.935C227.762 214.625 222.165 209.713 216.351 205.443C213.191 203.122 208.782 203.596 206.184 206.533L197.498 216.349C194.718 219.49 195.016 224.291 198.161 227.065Z" fill="#FFF78E"/>
<path d="M233.814 254.34C240.427 256.888 247.854 253.593 250.402 246.98C252.95 240.366 249.655 232.939 243.042 230.391C236.428 227.843 229.002 231.138 226.453 237.752C223.905 244.365 227.201 251.792 233.814 254.34Z" fill="#FF662B"/>
</svg>
