<svg width="174" height="174" viewBox="0 0 174 174" fill="none" xmlns="http://www.w3.org/2000/svg">
<rect width="174" height="174" fill="#BFD4EE"/>
<path d="M119.752 68.0594C116.933 68.0594 114.221 68.4757 111.651 69.2307C107.187 57.4112 95.6905 49 82.2073 49C64.8444 49 50.7703 62.9505 50.7703 80.1611C50.7703 80.267 50.7703 80.3728 50.7775 80.4787C49.5957 80.2882 48.3855 80.1611 47.1468 80.1611C34.9166 80.1611 25 89.9907 25 102.114C25 114.237 34.9166 124.066 47.1468 124.066H119.745C135.35 124.066 148 111.527 148 96.0593C148 80.5916 135.35 68.0523 119.745 68.0523L119.752 68.0594Z" fill="#37379D"/>
<path d="M111.93 80.877C109.78 80.877 107.701 81.1972 105.736 81.7807C102.319 72.6732 93.5339 66.1841 83.2253 66.1841C69.948 66.1841 59.1838 76.9423 59.1838 90.2122C59.1838 90.2976 59.1838 90.3758 59.1838 90.4612C58.2796 90.3118 57.3541 90.2122 56.4073 90.2122C47.0526 90.2122 39.4707 97.7899 39.4707 107.139C39.4707 116.489 47.0526 124.066 56.4073 124.066H111.923C123.855 124.066 133.53 114.397 133.53 102.472C133.53 90.5466 123.855 80.877 111.923 80.877H111.93Z" fill="#008CF1"/>
</svg>
