<svg width="480" height="480" viewBox="0 0 480 480" fill="none" xmlns="http://www.w3.org/2000/svg">
<rect width="480" height="480" fill="#BFD4EE"/>
<path fill-rule="evenodd" clip-rule="evenodd" d="M233.025 354.35L181.089 320.843C158.666 306.379 149.737 283.199 146.164 256.749L134.061 167.024C133.497 162.818 136.898 159.204 141.132 159.52C172.057 161.827 211.601 144.884 235.173 124.616C237.679 122.461 241.321 122.461 243.827 124.616C267.406 144.884 306.943 161.827 337.868 159.52C342.095 159.204 345.503 162.825 344.939 167.024L332.836 256.756C329.27 283.199 320.334 306.379 297.911 320.85L245.975 354.357C241.947 356.952 237.06 356.952 233.025 354.35Z" fill="#008CF1"/>
<path fill-rule="evenodd" clip-rule="evenodd" d="M234.553 327.281L194.878 301.685C177.75 290.635 170.92 272.922 168.194 252.716L158.941 184.161C158.508 180.946 161.11 178.185 164.346 178.426C187.973 180.188 218.182 167.246 236.199 151.756C238.112 150.11 240.894 150.11 242.808 151.756C260.817 167.246 291.033 180.181 314.661 178.426C317.889 178.185 320.492 180.946 320.065 184.161L310.812 252.716C308.086 272.922 301.263 290.628 284.128 301.685L244.453 327.281C241.369 329.271 237.637 329.271 234.553 327.281Z" fill="#37379D"/>
<path fill-rule="evenodd" clip-rule="evenodd" d="M239.285 268.49C229.488 263.947 212.435 250.426 207.919 238.433C198.288 212.871 229.66 200.541 239.285 221.539C248.909 200.541 280.288 212.871 270.65 238.433C266.134 250.426 249.081 263.947 239.285 268.49Z" fill="#ED3030"/>
</svg>
